<svg width="550" height="435" viewBox="-80 0 720 435" fill="none" xmlns="http://www.w3.org/2000/svg">
<g clip-path="url(#clip0_0_1)">
<path d="M290.748 97.4209C361.765 100.242 417.039 160.074 414.206 231.056C411.373 302.038 351.521 357.282 280.525 354.444C209.511 351.604 154.237 291.773 157.067 220.809C159.882 149.824 219.734 94.5811 290.748 97.4209Z" fill="#FFC68A"/>
<path d="M377.326 135.722C360.08 118.196 337.817 105.551 312.743 100.178C329.99 117.704 352.255 130.33 377.326 135.722Z" fill="#B97E2F"/>
<path d="M377.326 135.722C352.255 130.33 329.99 117.704 312.744 100.178C306.433 98.8254 299.95 97.9474 293.331 97.5493C315.279 126.657 349.368 146.265 388.441 148.593C385.027 144.065 381.319 139.749 377.326 135.722Z" fill="#CB6F4A"/>
<path d="M388.441 148.593C349.368 146.264 315.279 126.657 293.331 97.5492C292.472 97.4939 291.611 97.4511 290.748 97.4209C284.341 97.1635 278.047 97.3786 271.853 98.026C293.404 137.76 334.747 165.465 383.211 167.408C388.896 167.633 394.513 167.487 400.037 167.005C396.69 160.537 392.808 154.385 388.441 148.593Z" fill="#ED8043"/>
<path d="M383.211 167.408C334.747 165.465 293.404 137.76 271.853 98.026C260.621 99.2349 249.784 101.887 239.556 105.798C257.754 159.671 307.683 199.38 367.917 201.785C382.841 202.389 397.33 200.647 411.016 196.896C408.588 186.397 404.86 176.368 400.037 167.005C394.512 167.487 388.896 167.633 383.211 167.408Z" fill="#ED9452"/>
<path d="M367.917 201.785C307.683 199.38 257.754 159.671 239.556 105.798C236.707 106.897 233.91 108.092 231.165 109.382C247.412 167.75 299.828 211.606 363.656 214.15C380.865 214.826 397.495 212.451 413.009 207.512C412.485 203.921 411.821 200.382 411.016 196.896C397.33 200.647 382.842 202.389 367.917 201.785Z" fill="#F5B266"/>
<path d="M363.656 214.15C299.828 211.606 247.412 167.75 231.164 109.382C224.169 112.643 217.497 116.535 211.257 120.958C223.058 187.314 279.716 238.894 349.858 241.683C372.73 242.601 394.595 238.219 414.246 229.648C414.469 222.131 414.028 214.724 413.009 207.512C397.495 212.451 380.864 214.826 363.656 214.15Z" fill="#F6A364"/>
<path d="M349.858 241.683C279.716 238.894 223.058 187.314 211.257 120.958C210.027 121.838 208.814 122.732 207.619 123.641C217.719 192.02 275.299 245.72 346.904 248.576C370.823 249.527 393.621 244.707 413.963 235.342C414.063 233.916 414.144 232.487 414.206 231.056C414.227 230.581 414.245 230.125 414.246 229.648C394.595 238.219 372.73 242.601 349.858 241.683Z" fill="#B97E2F"/>
<path d="M346.904 248.576C275.299 245.72 217.719 192.02 207.62 123.641C195.301 133.023 184.738 144.589 176.475 157.796C176.016 236.463 238.068 301.907 317.336 305.061C348.022 306.296 376.889 297.985 401.082 282.814C408.219 268.36 412.722 252.339 413.963 235.342C393.622 244.707 370.823 249.527 346.904 248.576Z" fill="#F8B45A"/>
<path d="M317.336 305.061C238.068 301.907 176.016 236.463 176.475 157.796C173.168 163.06 170.229 168.598 167.72 174.361C167.09 253.179 229.215 318.804 308.577 321.969C338.313 323.162 366.348 315.398 390.069 301.104C394.22 295.353 397.899 289.238 401.082 282.814C376.889 297.985 348.022 306.296 317.336 305.061Z" fill="#B97E2F"/>
<path d="M308.577 321.969C229.215 318.804 167.09 253.179 167.72 174.361C166.461 177.235 165.304 180.155 164.249 183.118C163.382 262.155 225.592 328.02 305.104 331.203C331.611 332.246 356.758 326.207 378.693 314.767C382.777 310.478 386.588 305.926 390.069 301.104C366.348 315.398 338.313 323.162 308.577 321.969Z" fill="#F6B561"/>
<path d="M305.104 331.203C225.592 328.02 163.382 262.155 164.249 183.118C160.091 194.961 157.59 207.619 157.067 220.809C156.846 225.996 156.955 231.146 157.362 236.201C172.431 298.224 227.114 345.377 294.097 348.062C309.821 348.689 325.053 346.809 339.42 342.799C354.21 335.995 367.525 326.43 378.693 314.767C356.757 326.207 331.611 332.246 305.104 331.203Z" fill="#F88646"/>
<path d="M294.097 348.062C227.114 345.377 172.431 298.224 157.362 236.201C162.419 300.233 214.7 351.826 280.525 354.444C301.535 355.284 321.568 351.039 339.42 342.799C325.053 346.809 309.821 348.689 294.097 348.062Z" fill="#CB6F4A"/>
<path fill-rule="evenodd" clip-rule="evenodd" d="M281.745 347.051C251.502 343.312 224.245 330.412 202.699 311.343L202.718 311.345C224.245 330.412 251.502 343.312 281.745 347.051Z" fill="#CB9264"/>
<path d="M377.086 135.654C373.799 134.942 370.571 134.11 367.402 133.158C362.827 128.276 357.698 123.555 351.974 119.009C337.356 107.423 325.205 103.858 313.099 100.547C313.077 100.519 313.049 100.49 313.014 100.46C337.876 105.845 359.946 118.352 377.086 135.654Z" fill="#A96D31"/>
<path d="M380.222 147.844C380.21 147.843 380.203 147.842 380.203 147.842C379.802 147.792 379.407 147.744 379.018 147.696C375.657 142.735 371.788 137.864 367.402 133.158C370.57 134.11 373.799 134.942 377.086 135.654C381.111 139.723 384.86 144.025 388.288 148.593C388.288 148.593 388.282 148.593 388.269 148.591C385.564 148.422 382.882 148.173 380.222 147.844ZM313.118 100.549C312.748 100.453 312.384 100.357 312.026 100.262C312.362 100.329 312.697 100.396 313.033 100.462C313.055 100.491 313.083 100.52 313.118 100.549Z" fill="#B16840"/>
<path d="M389.639 167.496C386.918 160.762 383.399 154.139 379.018 147.696C379.407 147.744 379.802 147.792 380.203 147.842C380.203 147.842 380.21 147.843 380.222 147.844C382.882 148.173 385.564 148.422 388.269 148.591C388.282 148.593 388.288 148.593 388.288 148.593C392.676 154.369 396.575 160.542 399.94 167.012C396.54 167.318 393.106 167.479 389.639 167.496Z" fill="#BF6F3E"/>
<path d="M396.875 199.998C396.293 189.098 393.959 178.152 389.64 167.496C393.106 167.479 396.54 167.318 399.941 167.012C404.801 176.38 408.529 186.409 410.979 196.891C406.37 198.155 401.656 199.195 396.875 199.998Z" fill="#C17B45"/>
<path d="M396.849 211.645C397.074 207.764 397.083 203.882 396.875 199.998C401.656 199.195 406.37 198.155 410.978 196.891C411.788 200.391 412.458 203.93 412.969 207.527C407.719 209.188 402.351 210.568 396.849 211.645Z" fill="#C5864F"/>
<path d="M392.294 237.209C394.797 228.867 396.353 220.293 396.849 211.645C402.352 210.568 407.719 209.189 412.969 207.527C414.028 214.724 414.45 222.129 414.247 229.648C407.197 232.73 399.853 235.259 392.294 237.209Z" fill="#C48050"/>
<path d="M390.053 243.902C390.88 241.694 391.615 239.455 392.294 237.209C399.853 235.259 407.197 232.73 414.247 229.648C414.224 230.141 414.203 230.616 414.199 231.112C414.138 232.537 414.06 233.941 413.963 235.342C406.305 238.864 398.326 241.736 390.053 243.902Z" fill="#A96D31"/>
<path d="M345.871 303.451C365.994 287.968 381.618 267 390.053 243.902C398.326 241.736 406.305 238.864 413.963 235.342C412.722 252.339 408.219 268.36 401.063 282.811C384.552 293.184 365.84 300.343 345.871 303.451Z" fill="#C58649"/>
<path d="M312.844 322.076C324.743 317.474 335.864 311.133 345.871 303.451C365.84 300.343 384.552 293.184 401.063 282.811C397.878 289.255 394.179 295.367 390.008 301.135C367.443 314.732 340.986 322.404 312.844 322.076Z" fill="#A96D31"/>
<path d="M292.79 330.197C292.771 330.194 292.771 330.194 292.752 330.192C290.419 329.903 288.104 329.56 285.81 329.162C295.148 327.814 304.214 325.421 312.844 322.076C340.986 322.404 367.443 314.732 390.008 301.135C386.527 305.957 382.713 310.527 378.589 314.83C356.677 326.235 331.571 332.26 305.104 331.203C300.941 331.032 296.836 330.697 292.79 330.197Z" fill="#C3864C"/>
<path d="M281.783 347.056C281.764 347.053 281.764 347.053 281.745 347.051C251.502 343.312 224.245 330.412 202.718 311.345C219.91 321.588 237.25 327.379 254.169 329.471C264.952 330.804 275.56 330.626 285.81 329.162C288.105 329.56 290.419 329.904 292.753 330.192C292.771 330.194 292.771 330.194 292.79 330.197C296.836 330.697 300.941 331.033 305.105 331.203C331.571 332.26 356.678 326.235 378.59 314.83C367.34 326.541 353.907 336.129 338.964 342.933C324.724 346.845 309.652 348.668 294.097 348.062C293.972 348.047 293.839 348.037 293.7 348.032C289.689 347.861 285.697 347.54 281.783 347.056Z" fill="#C5723F"/>
<path d="M169.479 281.3C166 274.052 163.197 266.429 161.119 258.514C161.138 258.567 161.151 258.613 161.159 258.652C163.226 266.509 166.033 274.094 169.479 281.3Z" fill="#402712"/>
<path d="M170.074 282.52C169.87 282.112 169.671 281.706 169.48 281.3C166.033 274.094 163.226 266.509 161.159 258.652L161.178 258.655C163.342 266.963 166.349 274.936 170.074 282.52Z" fill="#CB9264"/>
<path d="M269.697 353.468C225.566 348.012 188.72 320.405 170.074 282.52C166.349 274.936 163.342 266.963 161.178 258.655C166.537 274.348 171.957 290.01 191.653 304.095C195.328 306.727 199.01 309.143 202.699 311.343C224.245 330.412 251.502 343.312 281.745 347.051C281.764 347.053 281.764 347.053 281.783 347.056C285.697 347.54 289.689 347.861 293.699 348.032C293.839 348.037 293.971 348.047 294.097 348.062C309.652 348.668 324.723 346.845 338.964 342.933C321.208 351.013 301.339 355.165 280.518 354.348C276.868 354.202 273.261 353.909 269.697 353.468Z" fill="#B16840"/>
<path d="M176.667 157.476C122.756 137.309 84.7484 129.917 79.2316 140.694C70.0908 158.529 153.387 219.361 265.238 276.562C377.106 333.783 475.193 365.696 484.315 347.859C490.158 336.454 458.273 307.512 405.328 273.197C404.767 274.637 404.167 276.09 403.534 277.502C449.528 307.462 476.94 332.089 472.078 341.59C464.115 357.164 372.443 326.217 267.349 272.468C162.236 218.717 83.4889 162.515 91.471 146.943C96.0308 138.034 128.016 144.376 174.241 161.493C175.038 160.14 175.836 158.787 176.667 157.476Z" fill="#D07E44"/>
<path d="M101.335 152.002C105.442 143.973 132.949 148.978 173.187 163.368C173.533 162.736 173.884 162.111 174.241 161.493C128.016 144.376 96.0307 138.034 91.4709 146.943C83.4888 162.515 162.236 218.717 267.349 272.468C372.443 326.217 464.115 357.164 472.078 341.59C476.94 332.089 449.528 307.462 403.534 277.502C403.265 278.137 402.978 278.751 402.709 279.386C442.983 306.156 466.621 327.929 462.211 336.551C454.654 351.316 367.752 321.97 268.083 271.012C168.436 220.037 93.7778 166.766 101.335 152.002Z" fill="#F6A364"/>
<path d="M79.2316 140.694C84.7484 129.917 122.756 137.309 176.667 157.476C177.139 156.752 177.594 156.006 178.082 155.302C110.6 128.224 62.2186 116.799 56.0685 128.835C46.5993 147.317 139.991 213.962 264.656 277.712C389.321 341.462 498.032 378.164 507.48 359.699C513.928 347.108 472.603 312.148 406.195 270.974C405.912 271.716 405.623 272.457 405.328 273.197C458.273 307.512 490.158 336.454 484.315 347.859C475.193 365.696 377.106 333.783 265.238 276.562C153.387 219.361 70.0907 158.529 79.2316 140.694Z" fill="#B0532F"/>
<path d="M173.187 163.368C132.95 148.978 105.443 143.973 101.336 152.002C93.778 166.766 168.436 220.037 268.083 271.012C367.752 321.97 454.654 351.316 462.211 336.551C466.621 327.929 442.983 306.156 402.709 279.386C402.118 280.663 401.509 281.931 400.882 283.19C426.447 301.897 440.512 316.871 437.036 323.66C430.032 337.347 354.852 312.87 269.111 269.038C183.353 225.186 119.531 178.544 126.513 164.874C129.612 158.821 146.097 160.248 170.954 167.522C171.681 166.123 172.425 164.744 173.187 163.368Z" fill="#CB6F4A"/>
<path fill-rule="evenodd" clip-rule="evenodd" d="M273.057 159.996L273.076 159.999C261.235 148.05 251.544 134.018 244.553 118.543C251.544 134.018 261.235 148.05 273.057 159.996Z" fill="#FFC68A"/>
<path d="M299.402 133.135C292.17 126.569 285.684 119.216 280.061 111.226C281.532 111.28 282.939 111.39 284.281 111.556C292.016 112.513 297.653 115.444 299.986 120.373C301.711 124.043 301.397 128.436 299.402 133.135Z" fill="#F5A267"/>
<path d="M273.076 159.999C261.235 148.05 251.544 134.018 244.553 118.543C257.593 113.375 270.107 110.912 280.061 111.226C285.684 119.216 292.17 126.569 299.402 133.135C295.71 141.827 286.207 151.615 273.076 159.999Z" fill="#F7AB6E"/>
<path d="M262.185 166.177C250.845 153.431 241.759 138.671 235.52 122.526C236.115 122.243 236.717 121.961 237.325 121.679C239.739 120.545 242.163 119.489 244.553 118.543C251.544 134.018 261.235 148.05 273.057 159.997C269.673 162.176 266.037 164.228 262.185 166.177Z" fill="#F9BB77"/>
<path d="M233.576 176.429C225.255 163.98 218.82 150.197 214.619 135.488C220.545 130.835 227.63 126.382 235.52 122.526C241.759 138.671 250.845 153.431 262.185 166.177C261.126 166.708 260.049 167.231 258.954 167.745C250.231 171.842 241.582 174.726 233.576 176.429Z" fill="#F8B377"/>
<path d="M226.975 177.58C219.779 165.614 214.243 152.592 210.679 138.763C211.922 137.675 213.242 136.578 214.619 135.488C218.819 150.197 225.255 163.98 233.575 176.429C231.318 176.914 229.112 177.291 226.975 177.58Z" fill="#DAA35C"/>
<path d="M211.979 177.865C204.263 176.911 198.607 173.978 196.293 169.051C192.494 160.98 198.497 149.518 210.68 138.763C214.244 152.592 219.78 165.614 226.975 177.58C221.458 178.312 216.383 178.41 211.979 177.865Z" fill="#FCBE71"/>
</g>
<g clip-path="url(#clip1_0_1)">
<path d="M356.495 395.31C353.221 400.304 346.185 401.759 340.768 398.571C335.351 395.383 333.623 388.759 336.897 383.765C340.171 378.771 347.207 377.316 352.624 380.504C358.041 383.692 359.769 390.315 356.495 395.31Z" fill="#FFABAB"/>
<path d="M345.128 400.398C339.999 399.478 336.22 395.539 335.563 390.947C335.856 392.317 336.174 393.67 337.76 395.083C339.711 396.834 341.848 397.803 343.934 398.177C353.279 399.854 362.152 389.531 354.162 381.679C352.961 380.502 351.896 380.06 350.831 379.618C355.941 381.392 359.227 386.33 358.485 391.465C358.478 391.589 358.465 391.705 358.445 391.813C358.426 391.921 358.399 392.028 358.366 392.133C357.167 397.813 351.278 401.502 345.128 400.398Z" fill="#FF8E8E"/>
<path d="M340.503 386.796C339.808 386.671 339.297 386.391 339.109 385.939C338.614 384.826 340.382 383.095 343.071 382.114C344.705 381.508 346.31 381.315 347.418 381.514C348.113 381.639 348.624 381.919 348.834 382.374C349.329 383.488 347.561 385.219 344.872 386.2C343.216 386.802 341.612 386.994 340.503 386.796Z" fill="#FF9D9D"/>
<path d="M199.456 103.518C196.183 108.512 189.147 109.967 183.73 106.779C178.313 103.591 176.585 96.9675 179.859 91.9734C183.133 86.9793 190.169 85.5242 195.586 88.7123C201.003 91.9003 202.73 98.5236 199.456 103.518Z" fill="#FFABAB"/>
<path d="M188.09 108.607C182.961 107.686 179.182 103.747 178.525 99.1553C178.818 100.525 179.136 101.878 180.722 103.291C182.673 105.042 184.81 106.011 186.896 106.385C196.241 108.062 205.115 97.739 197.125 89.8874C195.923 88.71 194.858 88.2681 193.793 87.8262C198.903 89.6003 202.19 94.5382 201.448 99.6731C201.44 99.7972 201.427 99.9133 201.408 100.021C201.388 100.129 201.362 100.236 201.328 100.341C200.129 106.022 194.24 109.71 188.09 108.607Z" fill="#FF8E8E"/>
<path d="M183.465 95.0037C182.77 94.8789 182.259 94.5991 182.071 94.1473C181.575 93.034 183.344 91.3027 186.033 90.3218C187.667 89.7161 189.271 89.5233 190.38 89.7222C191.075 89.847 191.586 90.1268 191.796 90.5825C192.291 91.6958 190.522 93.4271 187.834 94.408C186.178 95.0098 184.573 95.2026 183.465 95.0037Z" fill="#FF9D9D"/>
<path d="M151.531 129.578C143.23 128.088 137.659 120.629 139.044 112.913C140.432 105.176 148.245 100.139 156.547 101.629C164.848 103.119 170.422 110.558 169.034 118.294C167.649 126.011 159.833 131.068 151.531 129.578Z" fill="#3277BC"/>
<path d="M161.36 127.809C153.08 126.323 147.466 118.856 148.851 111.139C149.607 106.927 152.318 103.567 155.928 101.581C147.876 100.449 140.396 105.378 139.044 112.912C137.659 120.629 143.252 128.092 151.531 129.578C155.291 130.252 158.943 129.528 161.958 127.853C161.762 127.818 161.556 127.844 161.36 127.809Z" fill="#3065A3"/>
<path d="M151.531 129.578C143.23 128.088 137.659 120.629 139.044 112.913C140.432 105.176 148.245 100.139 156.547 101.629C164.848 103.119 170.422 110.558 169.034 118.294C167.649 126.011 159.833 131.068 151.531 129.578Z" fill="#3277BC"/>
<path d="M161.36 127.809C153.08 126.323 147.466 118.856 148.851 111.139C149.607 106.927 152.318 103.567 155.928 101.581C147.876 100.449 140.396 105.378 139.044 112.912C137.659 120.629 143.252 128.092 151.531 129.578C155.291 130.252 158.943 129.528 161.958 127.853C161.762 127.818 161.556 127.844 161.36 127.809Z" fill="#3065A3"/>
<path d="M469.864 188.313C461.58 186.847 455.977 179.445 457.34 171.725C458.703 164.005 466.476 158.94 474.76 160.406C483.022 161.867 488.625 169.27 487.283 176.994C485.924 184.694 478.151 189.758 469.864 188.313Z" fill="#F28484"/>
<path d="M350.769 87.5862C343.782 86.3951 339.022 80.1684 340.124 73.6556C341.225 67.1428 347.763 62.8388 354.75 64.0299C361.736 65.221 366.496 71.4477 365.395 77.9605C364.293 84.4734 357.756 88.7773 350.769 87.5862Z" fill="#FFF8B3"/>
<path d="M359.015 86.0138C352.049 84.8266 347.268 78.5959 348.366 72.1034C348.958 68.5513 351.199 65.6922 354.239 64.001C347.447 63.0958 341.193 67.325 340.124 73.6556C339.022 80.1684 343.804 86.399 350.769 87.5862C353.946 88.1353 357 87.4918 359.522 86.0629C359.369 86.0356 359.188 86.0449 359.015 86.0138Z" fill="#FDD0A3"/>
<path d="M379.388 383.363C374.313 382.515 370.864 377.987 371.642 373.276C372.445 368.55 377.199 365.431 382.252 366.275C387.323 367.143 390.776 371.651 389.973 376.378C389.191 381.108 384.437 384.227 379.388 383.363Z" fill="#FFE7F8"/>
<path d="M385.354 382.238C380.284 381.37 376.834 376.842 377.634 372.136C378.074 369.56 379.701 367.49 381.876 366.249C376.964 365.619 372.423 368.671 371.642 373.276C370.864 377.987 374.313 382.515 379.388 383.363C381.673 383.752 383.887 383.292 385.731 382.264C385.601 382.241 385.485 382.262 385.354 382.238Z" fill="#FDD0A3"/>
<path d="M125.261 235.848C122.824 239.549 117.604 240.64 113.588 238.268C109.55 235.892 108.278 230.981 110.693 227.275C113.129 223.573 118.35 222.483 122.369 224.834C126.407 227.21 127.701 232.125 125.261 235.848Z" fill="#3E61AC"/>
<path d="M126.397 231.891C126.409 231.489 126.384 231.088 126.321 230.686L114.958 224.006C114.562 224.13 114.176 224.284 113.799 224.467L126.397 231.891Z" fill="#5782C1"/>
<path d="M125.497 228.155C122.304 224.823 120.25 225.646 120.241 228.571C119.181 238.227 113.165 236.499 111.166 236.266C111.792 237.026 112.567 237.709 113.501 238.253C117.517 240.625 122.737 239.534 125.174 235.832C126.747 233.438 126.749 230.554 125.497 228.155Z" fill="#3557A6"/>
<path d="M109.61 233.185C110.123 235.201 111.451 237.049 113.501 238.253C115.528 239.453 117.872 239.769 120.02 239.297L109.61 233.185Z" fill="#5882C1"/>
<path d="M116.597 239.373C117.061 239.456 117.524 239.497 117.988 239.497L110.319 234.985C110.531 235.385 110.777 235.764 111.057 236.121L116.597 239.373Z" fill="#3279B7"/>
<path d="M109.532 229.868C109.493 230.084 109.462 230.302 109.437 230.52L122.604 238.277C122.804 238.159 122.992 238.033 123.165 237.897L109.532 229.868Z" fill="#5882C1"/>
<path d="M121.785 238.715L109.39 231.411C109.39 231.662 109.407 231.901 109.44 232.13L121.086 238.987C121.325 238.904 121.558 238.814 121.785 238.715Z" fill="#3279B7"/>
<path d="M109.608 229.568L123.445 237.717C123.604 237.578 123.763 237.439 123.923 237.301L109.782 228.973C109.717 229.17 109.659 229.369 109.608 229.568Z" fill="#3279B7"/>
<path d="M110.174 228.039C110.082 228.218 109.996 228.405 109.917 228.599L124.224 236.999C124.369 236.858 124.508 236.709 124.64 236.552L110.174 228.039Z" fill="#5882C1"/>
<path d="M111.421 226.215C111.289 226.372 111.156 226.529 111.023 226.687L125.529 235.227C125.621 235.048 125.707 234.861 125.786 234.667L111.421 226.215Z" fill="#5882C1"/>
<path d="M112.175 225.514C112.018 225.639 111.866 225.779 111.719 225.933L125.942 234.297C126.022 234.103 126.088 233.905 126.138 233.706L112.175 225.514Z" fill="#5882C1"/>
<path d="M112.356 225.379L126.171 233.523C126.2 233.445 126.222 233.365 126.236 233.284L112.541 225.224C112.471 225.281 112.41 225.333 112.356 225.379Z" fill="#5882C1"/>
<path d="M126.338 232.717L113.049 224.897C112.966 224.938 112.892 224.98 112.824 225.024L126.294 232.96C126.309 232.879 126.324 232.798 126.338 232.717Z" fill="#5882C1"/>
<path d="M113.251 224.766L126.36 232.47C126.374 232.389 126.382 232.307 126.382 232.223L113.476 224.639C113.411 224.669 113.336 224.712 113.251 224.766Z" fill="#5882C1"/>
<path d="M110.312 227.772L124.818 236.312C124.951 236.154 125.07 235.994 125.173 235.832L110.606 227.26C110.502 227.422 110.404 227.593 110.312 227.772Z" fill="#3279B7"/>
<path d="M126.159 229.842C126.077 229.548 125.979 229.259 125.866 228.974L116.798 223.626C116.48 223.652 116.165 223.7 115.853 223.77L126.159 229.842Z" fill="#3279B7"/>
<path d="M125.497 228.155C122.304 224.823 120.25 225.646 120.241 228.571C119.181 238.227 113.165 236.499 111.166 236.266C111.792 237.026 112.567 237.709 113.501 238.253C117.517 240.625 122.737 239.534 125.174 235.832C126.747 233.438 126.749 230.554 125.497 228.155Z" fill="#3557A6"/>
<path d="M120.248 228.279L126.397 231.891C126.402 231.697 126.398 231.508 126.386 231.325C126.377 231.295 126.374 231.267 126.379 231.24C126.362 231.084 126.344 230.934 126.325 230.791C126.332 230.751 126.331 230.716 126.321 230.686L120.437 227.226C120.323 227.526 120.26 227.877 120.248 228.279Z" fill="#4A73B6"/>
<path d="M116.706 239.392C116.721 239.395 116.735 239.397 116.75 239.4C116.88 239.423 117.004 239.439 117.123 239.446C117.137 239.449 117.152 239.451 117.166 239.454C117.195 239.459 117.231 239.466 117.275 239.473C117.041 239.445 116.815 239.412 116.597 239.373C116.626 239.378 116.663 239.384 116.706 239.392Z" fill="#4A73B6"/>
<path d="M112.875 236.489L117.988 239.497C117.764 239.498 117.541 239.486 117.322 239.461C117.394 239.474 117.468 239.48 117.543 239.48C117.557 239.482 117.564 239.484 117.564 239.484C117.697 239.494 117.831 239.497 117.966 239.493C117.966 239.493 117.974 239.494 117.988 239.497C118.121 239.507 118.248 239.509 118.369 239.503C118.383 239.505 118.39 239.506 118.39 239.506C118.525 239.503 118.662 239.492 118.8 239.475C118.937 239.458 119.074 239.448 119.209 239.444C119.347 239.427 119.478 239.402 119.604 239.369C119.604 239.369 119.611 239.37 119.626 239.373C119.749 239.353 119.873 239.327 119.999 239.293C120.013 239.296 120.02 239.297 120.02 239.297L115.11 236.409C114.32 236.56 113.56 236.549 112.875 236.489Z" fill="#4A73B6"/>
<path d="M111.166 236.266C111.166 236.266 111.173 236.267 111.187 236.27C111.248 236.35 111.315 236.432 111.39 236.515C111.402 236.531 111.414 236.547 111.426 236.563C111.489 236.63 111.558 236.705 111.633 236.789C111.659 236.807 111.678 236.825 111.69 236.841C111.768 236.91 111.838 236.979 111.9 237.046C111.925 237.078 111.957 237.105 111.998 237.126C112.061 237.193 112.125 237.253 112.19 237.307C112.229 237.342 112.267 237.376 112.306 237.411C112.357 237.462 112.416 237.507 112.483 237.547C112.534 237.598 112.586 237.643 112.639 237.68C112.692 237.717 112.745 237.755 112.798 237.792C112.864 237.846 112.93 237.892 112.997 237.932C113.051 237.97 113.098 237.999 113.139 238.02C113.259 238.098 113.38 238.175 113.501 238.253C113.622 238.33 113.743 238.401 113.867 238.465C113.908 238.486 113.95 238.501 113.993 238.508C114.087 238.567 114.176 238.618 114.258 238.66C114.299 238.682 114.341 238.696 114.384 238.704C114.481 238.749 114.57 238.793 114.652 238.836C114.696 238.843 114.738 238.858 114.779 238.879C114.878 238.911 114.976 238.949 115.072 238.995C115.101 239 115.13 239.005 115.159 239.01C115.273 239.045 115.379 239.078 115.478 239.109C115.505 239.128 115.532 239.14 115.561 239.145C115.675 239.179 115.782 239.206 115.884 239.224C115.913 239.229 115.942 239.234 115.971 239.239C116.07 239.271 116.177 239.297 116.293 239.318C116.322 239.323 116.344 239.327 116.358 239.33C116.431 239.343 116.51 239.357 116.597 239.373L111.343 236.277C111.283 236.28 111.224 236.276 111.166 236.266Z" fill="#4A73B6"/>
<path d="M112.875 236.489C112.278 236.444 111.734 236.347 111.343 236.277L116.597 239.373C116.815 239.412 117.04 239.445 117.275 239.473C117.275 239.473 117.276 239.467 117.278 239.453C117.293 239.456 117.3 239.457 117.3 239.457C117.3 239.457 117.307 239.458 117.322 239.461C117.542 239.486 117.764 239.498 117.988 239.497L112.875 236.489Z" fill="#306A9A"/>
<path d="M117.495 235.248L122.604 238.277C122.804 238.159 122.992 238.033 123.166 237.897L117.951 234.829C117.804 234.983 117.652 235.123 117.495 235.248Z" fill="#4A73B6"/>
<path d="M116.154 236.095L121.086 238.987C121.325 238.904 121.558 238.814 121.785 238.715L116.795 235.771C116.578 235.899 116.364 236.007 116.154 236.095Z" fill="#306A9A"/>
<path d="M118.151 234.593L123.445 237.717C123.445 237.717 123.446 237.71 123.448 237.696C123.605 237.571 123.764 237.439 123.923 237.301L118.506 234.113C118.385 234.286 118.267 234.446 118.151 234.593Z" fill="#306A9A"/>
<path d="M118.723 233.776L124.224 236.999C124.369 236.858 124.501 236.708 124.619 236.548C124.619 236.548 124.626 236.549 124.641 236.552L118.999 233.24C118.919 233.434 118.827 233.613 118.723 233.776Z" fill="#4A73B6"/>
<path d="M119.605 231.739L125.529 235.227C125.534 235.2 125.546 235.174 125.565 235.15C125.633 235.022 125.695 234.887 125.75 234.744C125.77 234.719 125.782 234.694 125.787 234.667L119.779 231.143C119.728 231.343 119.67 231.541 119.605 231.739Z" fill="#4A73B6"/>
<path d="M119.877 230.721L125.942 234.297C125.947 234.27 125.951 234.25 125.953 234.237C126.011 234.08 126.061 233.929 126.102 233.783C126.121 233.758 126.134 233.732 126.138 233.705L120.008 230.118C119.971 230.32 119.928 230.521 119.877 230.721Z" fill="#4A73B6"/>
<path d="M120.048 229.895L126.171 233.523C126.193 233.485 126.207 233.446 126.215 233.406C126.222 233.365 126.229 233.325 126.237 233.284L120.088 229.672C120.073 229.753 120.06 229.827 120.048 229.895Z" fill="#4A73B6"/>
<path d="M120.128 229.324L126.295 232.96C126.297 232.947 126.298 232.94 126.298 232.94C126.313 232.859 126.326 232.785 126.338 232.717L120.171 229.081C120.157 229.162 120.142 229.243 120.128 229.324Z" fill="#4A73B6"/>
<path d="M120.193 228.834L126.36 232.47C126.375 232.389 126.382 232.307 126.382 232.223L120.237 228.591C120.219 228.692 120.208 228.753 120.193 228.834Z" fill="#4A73B6"/>
<path d="M119.373 232.408C119.293 232.602 119.214 232.79 119.137 232.972L124.818 236.312C124.951 236.154 125.07 235.994 125.174 235.832L119.373 232.408Z" fill="#306A9A"/>
<path d="M126.087 229.62C126.079 229.577 126.071 229.54 126.061 229.511C126.02 229.406 125.98 229.294 125.942 229.176C125.935 229.133 125.92 229.088 125.899 229.042C125.889 229.013 125.878 228.99 125.866 228.974L121.18 226.21C120.997 226.316 120.844 226.456 120.724 226.63L126.141 229.818C126.121 229.758 126.103 229.692 126.087 229.62Z" fill="#306A9A"/>
<path d="M463.524 243.64C458.287 242.7 454.776 238.014 455.652 233.133C456.528 228.252 461.449 225.08 466.686 226.02C471.924 226.96 475.435 231.645 474.559 236.526C473.683 241.407 468.762 244.579 463.524 243.64Z" fill="#F98B54"/>
<path d="M465.888 234.092C465.57 233.993 465.363 233.893 465.113 233.786C464.863 233.678 464.548 233.559 464.309 233.642C464.07 233.724 463.911 233.988 463.878 234.17C463.871 234.336 463.99 234.42 463.899 234.551C463.834 234.664 463.58 234.828 463.392 234.878C463.178 234.944 463.048 234.92 462.718 234.757C462.392 234.573 461.846 234.245 461.6 233.992C461.332 233.734 461.343 233.548 461.506 233.389C461.669 233.23 461.984 233.099 462.136 233.001C462.314 232.886 462.35 232.809 462.47 232.643C462.607 232.5 462.847 232.292 463.05 232.161C463.234 232.006 463.387 231.908 463.242 231.715C463.101 231.501 462.637 231.209 462.456 230.968C462.275 230.726 462.333 230.528 462.424 230.397C462.536 230.271 462.667 230.169 462.79 230.108C462.917 230.026 463.044 229.944 463.174 229.842C463.305 229.74 463.442 229.598 463.526 229.383C463.627 229.192 463.675 228.929 463.794 228.637C463.918 228.324 464.07 227.975 464.023 227.737C463.958 227.474 463.686 227.363 463.864 227.248C464.038 227.154 464.657 227.077 465.106 227.074C465.538 227.047 465.777 227.09 465.922 227.032C466.092 226.958 466.143 226.8 465.911 226.717C465.675 226.654 465.128 226.702 464.741 226.737C464.353 226.772 464.121 226.814 463.871 226.832C463.621 226.849 463.375 226.847 463.056 226.874C462.741 226.88 462.357 226.894 462.118 226.851C461.879 226.809 461.807 226.712 461.778 226.623C461.731 226.51 461.745 226.429 461.966 226.323C462.187 226.216 462.629 226.128 463.053 226.016C459.532 226.638 456.64 229.13 455.779 232.55C455.852 232.27 455.943 232.015 456.207 231.916C456.472 231.817 456.924 231.919 457.221 232.014C457.536 232.133 457.692 232.266 457.819 232.435C457.971 232.588 458.076 232.753 458.137 232.91C458.173 233.084 458.151 233.205 458.083 233.339C458.035 233.477 457.948 233.587 457.93 233.688C457.912 233.79 457.966 233.862 458.173 233.962C458.354 234.078 458.683 234.242 459.042 234.494C459.382 234.722 459.701 235.072 459.592 235.429C459.458 235.802 458.874 236.178 458.649 236.431C458.407 236.659 458.526 236.743 458.776 236.851C459.008 236.934 459.366 237.061 459.623 237.128C459.902 237.199 460.051 237.247 460.29 237.289C460.533 237.312 460.862 237.35 461.119 237.417C461.373 237.505 461.554 237.621 461.684 237.77C461.818 237.898 461.927 238.043 462.133 238.143C462.318 238.239 462.579 238.285 462.785 238.385C462.97 238.481 463.082 238.606 463.082 238.731C463.107 238.84 463.027 238.91 462.98 239.047C462.937 239.165 462.908 239.327 462.915 239.412C462.9 239.493 462.9 239.493 462.994 239.593C463.089 239.694 463.259 239.871 463.592 240.014C463.929 240.137 464.407 240.223 464.881 240.078C465.36 239.913 465.816 239.494 466.371 239.405C466.921 239.337 467.569 239.599 468.04 239.725C468.508 239.872 468.819 239.886 469 239.877C469.203 239.871 469.301 239.826 469.486 239.797C469.667 239.787 469.935 239.794 470.044 239.688C470.131 239.578 470.036 239.352 470.08 239.234C470.12 239.137 470.323 239.132 470.439 239.111C470.558 239.069 470.613 239.016 470.616 238.871C470.638 238.749 470.584 238.551 470.544 238.398C470.479 238.261 470.432 238.148 470.447 238.067C470.465 237.966 470.523 237.892 470.519 237.787C470.516 237.682 470.429 237.541 470.411 237.391C470.393 237.242 470.425 237.06 470.281 236.866C470.161 236.657 469.864 236.436 469.665 236.296C469.444 236.152 469.318 236.108 469.242 236.032C469.169 235.935 469.144 235.826 469.213 235.692C469.256 235.575 469.39 235.452 469.412 235.331C469.434 235.209 469.344 235.089 469.242 234.903C469.123 234.694 469.014 234.423 468.848 234.226C468.685 234.009 468.486 233.868 468.189 233.899C467.87 233.925 467.479 234.106 467.062 234.177C466.649 234.229 466.211 234.171 465.888 234.092Z" fill="#EF7647"/>
<path fill-rule="evenodd" clip-rule="evenodd" d="M469.741 230.623C469.708 230.304 469.824 230.032 469.774 229.814C469.745 229.6 469.535 229.395 469.408 229.351C469.282 229.308 469.22 229.401 469.068 229.499C468.919 229.577 468.676 229.68 468.484 229.75C468.318 229.804 468.198 229.845 468.042 229.838C467.887 229.831 467.72 229.759 467.731 229.698C467.742 229.638 467.93 229.588 467.985 229.535C468.017 229.478 467.916 229.418 467.789 229.249C467.644 229.056 467.474 228.753 467.406 228.511C467.337 228.269 467.37 228.087 467.515 227.904C467.66 227.721 467.895 227.533 468.04 227.35C468.185 227.167 468.218 226.984 468.077 226.771C467.914 226.554 467.577 226.305 467.24 226.057C472.26 227.208 475.554 231.855 474.638 236.582C474.046 239.633 471.871 242.002 469.049 243.105C469.049 243.105 469.074 243.089 469.118 242.971C469.161 242.853 469.227 242.614 469.372 242.431C469.491 242.265 469.69 242.154 469.93 242.071C470.169 241.989 470.473 241.918 470.669 241.828C470.886 241.741 470.998 241.615 471.042 241.498C471.082 241.4 471.039 241.267 471.06 241.145C471.108 241.008 471.224 240.861 471.379 240.743C471.532 240.645 471.745 240.579 472.064 240.427C472.379 240.295 472.818 240.102 473.075 239.918C473.332 239.734 473.427 239.584 473.506 239.389C473.565 239.191 473.583 238.964 473.529 238.766C473.453 238.564 473.301 238.412 473.127 238.255C472.957 238.078 472.739 237.914 472.678 237.631C472.613 237.369 472.7 237.008 472.7 236.757C472.704 236.486 472.664 236.333 472.603 236.175C472.538 236.038 472.447 235.917 472.433 235.747C472.397 235.574 472.433 235.371 472.578 235.188C472.745 235.009 473.042 234.853 473.205 234.694C473.372 234.515 473.404 234.333 473.358 234.095C473.307 233.877 473.169 233.643 472.76 233.423C472.351 233.203 471.645 233.014 471.156 232.863C470.689 232.717 470.413 232.626 470.29 232.436C470.164 232.267 470.189 232 470.092 231.669C469.994 231.338 469.795 230.947 469.741 230.623ZM469.049 243.105C468.906 243.149 468.771 243.194 468.643 243.241L468.69 243.229C468.759 243.22 468.857 243.175 468.929 243.146C469.002 243.117 469.023 243.121 469.049 243.105Z" fill="#EE8259"/>
<path d="M460.173 239.693C460.734 239.69 461.408 239.685 461.484 239.511C461.556 239.356 461.031 239.032 460.749 238.731C460.441 238.445 460.398 238.187 460.054 237.979C459.728 237.795 459.102 237.661 458.656 237.644C458.21 237.627 457.975 237.689 457.685 237.679C457.421 237.653 457.106 237.533 456.928 237.397C456.754 237.24 456.722 237.046 456.755 236.739C456.762 236.447 456.835 236.042 456.857 235.795C456.882 235.528 456.853 235.439 456.766 235.549C456.676 235.679 456.527 236.008 456.451 236.182C456.353 236.353 456.324 236.39 456.201 236.326C456.052 236.278 455.853 236.138 455.73 235.698C455.611 235.237 455.593 234.461 455.554 233.68C455.03 238.352 458.504 242.739 463.525 243.64C465.002 243.905 466.448 243.851 467.784 243.526C467.6 243.556 467.411 243.605 467.179 243.647C466.926 243.686 466.651 243.72 466.328 243.641C466.006 243.562 465.64 243.35 465.173 243.329C464.706 243.308 464.115 243.474 463.572 243.502C463.05 243.534 462.579 243.407 462.289 243.272C462 243.136 461.891 242.991 461.982 242.861C462.069 242.751 462.33 242.673 462.453 242.611C462.554 242.546 462.518 242.497 462.189 242.459C461.837 242.417 461.211 242.409 460.881 242.245C460.548 242.102 460.526 241.847 460.305 241.578C460.103 241.332 459.697 241.092 459.415 240.791C459.114 240.465 458.89 240.09 459.013 239.903C459.14 239.696 459.611 239.697 460.173 239.693Z" fill="#F78458"/>
<path fill-rule="evenodd" clip-rule="evenodd" d="M462.811 243.491C462.811 243.491 462.804 243.489 462.789 243.487C462.789 243.487 462.797 243.488 462.811 243.491ZM467.574 243.572C468.091 243.442 468.591 243.281 469.074 243.089C469.072 243.102 469.063 243.108 469.049 243.105C471.078 242.298 472.756 240.823 473.746 238.931C472.723 240.879 470.973 242.384 468.879 243.179C468.944 243.149 469.001 243.124 469.049 243.105C469.049 243.105 469.024 243.121 468.951 243.15C468.879 243.179 468.759 243.22 468.712 243.233L468.665 243.245C468.377 243.347 468.084 243.44 467.785 243.526C467.707 243.54 467.637 243.555 467.574 243.572ZM474.454 237.113C474.456 237.1 474.457 237.093 474.457 237.093C474.455 237.107 474.454 237.113 474.454 237.113ZM474.508 236.81C474.51 236.796 474.512 236.789 474.512 236.789C474.509 236.803 474.508 236.81 474.508 236.81ZM474.635 236.101C474.638 236.087 474.639 236.081 474.639 236.081C474.636 236.094 474.635 236.101 474.635 236.101ZM468.86 226.661C468.862 226.647 468.863 226.64 468.863 226.64C468.861 226.654 468.86 226.661 468.86 226.661Z" fill="#502815"/>
<path d="M463.524 243.64C463.524 243.64 463.517 243.638 463.503 243.636C463.488 243.633 463.481 243.632 463.481 243.632C463.466 243.629 463.459 243.628 463.459 243.628C463.445 243.625 463.437 243.624 463.437 243.624C463.437 243.624 463.43 243.623 463.416 243.62C463.401 243.618 463.394 243.616 463.394 243.616C463.394 243.616 463.387 243.615 463.372 243.612C463.358 243.61 463.351 243.608 463.351 243.608C463.351 243.608 463.343 243.607 463.329 243.605C463.314 243.602 463.307 243.601 463.307 243.601C463.307 243.601 463.3 243.599 463.285 243.597C463.271 243.594 463.264 243.593 463.264 243.593C463.264 243.593 463.256 243.592 463.242 243.589C463.242 243.589 463.235 243.588 463.22 243.585C463.22 243.585 463.213 243.584 463.198 243.581C463.198 243.581 463.191 243.58 463.177 243.577C463.177 243.577 463.169 243.576 463.155 243.573C463.155 243.573 463.148 243.572 463.133 243.569C463.133 243.569 463.126 243.568 463.111 243.566C463.097 243.563 463.09 243.562 463.09 243.562C463.09 243.562 463.083 243.56 463.068 243.558C463.068 243.558 463.061 243.556 463.046 243.554C463.046 243.554 463.039 243.553 463.025 243.55C463.01 243.547 463.003 243.546 463.003 243.546C463.003 243.546 462.996 243.545 462.981 243.542C462.981 243.542 462.974 243.541 462.959 243.538C462.959 243.538 462.952 243.537 462.938 243.534C462.923 243.532 462.916 243.53 462.916 243.53C462.918 243.517 462.912 243.509 462.898 243.506C462.883 243.504 462.876 243.502 462.876 243.502C462.876 243.502 462.869 243.501 462.854 243.498C462.84 243.496 462.833 243.495 462.833 243.495C462.833 243.495 462.825 243.493 462.811 243.491C462.796 243.488 462.789 243.487 462.789 243.487C462.789 243.487 462.782 243.485 462.767 243.483C462.767 243.483 462.76 243.482 462.746 243.479C462.731 243.476 462.717 243.474 462.702 243.471C462.702 243.471 462.695 243.47 462.68 243.467C462.68 243.467 462.673 243.466 462.659 243.463C462.647 243.447 462.633 243.438 462.619 243.435C462.619 243.435 462.612 243.434 462.597 243.431C462.568 243.426 462.546 243.422 462.532 243.42C462.532 243.42 462.525 243.418 462.51 243.416C462.496 243.413 462.481 243.411 462.467 243.408C462.452 243.405 462.445 243.404 462.445 243.404C462.445 243.404 462.439 243.396 462.427 243.38C462.412 243.377 462.398 243.375 462.384 243.372C459.722 242.581 457.622 240.783 456.475 238.549C456.477 238.535 456.471 238.527 456.457 238.525C456.459 238.511 456.454 238.496 456.442 238.48C456.444 238.467 456.438 238.459 456.424 238.456C456.426 238.443 456.422 238.428 456.41 238.412C456.41 238.412 456.404 238.404 456.391 238.388C456.391 238.388 456.393 238.381 456.395 238.367C456.381 238.365 456.373 238.363 456.373 238.363C456.373 238.363 456.375 238.357 456.377 238.343C456.362 238.341 456.356 238.333 456.359 238.319C456.361 238.306 456.362 238.299 456.362 238.299C456.362 238.299 456.355 238.298 456.341 238.295C456.343 238.281 456.344 238.275 456.344 238.275C456.344 238.275 456.337 238.273 456.323 238.271C456.325 238.257 456.326 238.251 456.326 238.251C456.329 238.237 456.33 238.23 456.33 238.23C456.315 238.228 456.308 238.226 456.308 238.226C456.311 238.213 456.312 238.206 456.312 238.206C456.3 238.19 456.294 238.182 456.294 238.182C456.296 238.168 456.29 238.16 456.276 238.158C456.276 238.158 456.277 238.151 456.279 238.138C456.279 238.138 456.28 238.131 456.283 238.117C456.268 238.115 456.261 238.113 456.261 238.113C456.264 238.1 456.259 238.085 456.247 238.069C456.247 238.069 456.248 238.062 456.25 238.049C456.238 238.033 456.226 238.017 456.214 238C455.918 237.278 455.69 236.548 455.582 235.776C455.845 236.931 456.091 238.062 457.427 239.242C458.006 239.764 458.6 240.206 459.208 240.566C459.269 240.646 459.337 240.721 459.415 240.791C459.697 241.092 460.103 241.332 460.305 241.578C460.526 241.847 460.548 242.102 460.881 242.245C460.982 242.305 461.113 242.329 461.243 242.352C461.569 242.411 461.946 242.436 462.188 242.459C462.246 242.47 462.29 242.477 462.319 242.483C462.514 242.518 462.529 242.562 462.453 242.611C462.33 242.673 462.069 242.751 461.982 242.861C461.891 242.991 462 243.136 462.289 243.272C462.434 243.339 462.644 243.419 462.883 243.462C463.101 243.501 463.343 243.523 463.572 243.502C464.115 243.474 464.705 243.308 465.173 243.329C465.262 243.331 465.343 243.339 465.415 243.352C465.785 243.418 466.071 243.574 466.328 243.641C466.372 243.649 466.408 243.655 466.437 243.661C466.719 243.711 466.973 243.673 467.179 243.647C467.319 243.617 467.451 243.592 467.574 243.572C467.637 243.555 467.707 243.54 467.784 243.526C466.846 243.755 465.864 243.85 464.843 243.793C464.797 243.798 464.76 243.799 464.731 243.793C464.731 243.793 464.723 243.792 464.709 243.789C464.694 243.787 464.687 243.786 464.687 243.786C464.673 243.783 464.665 243.782 464.665 243.782C464.634 243.79 464.611 243.793 464.597 243.79C464.582 243.788 464.575 243.786 464.575 243.786C464.575 243.786 464.568 243.785 464.553 243.782C464.539 243.78 464.531 243.778 464.531 243.778C464.531 243.778 464.524 243.777 464.51 243.775C464.495 243.772 464.481 243.769 464.466 243.767C464.466 243.767 464.459 243.765 464.444 243.763C464.444 243.763 464.437 243.762 464.423 243.759C464.423 243.759 464.421 243.766 464.419 243.779C464.405 243.777 464.397 243.775 464.397 243.775C464.383 243.773 464.376 243.771 464.376 243.771C464.361 243.769 464.347 243.766 464.332 243.764C464.318 243.761 464.31 243.76 464.31 243.76C464.296 243.757 464.289 243.756 464.289 243.756C464.289 243.756 464.281 243.755 464.267 243.752C464.267 243.752 464.26 243.751 464.245 243.748C464.231 243.745 464.216 243.743 464.202 243.74C464.202 243.74 464.194 243.739 464.18 243.736C464.166 243.734 464.158 243.732 464.158 243.732C464.141 243.743 464.133 243.749 464.133 243.749C464.133 243.749 464.126 243.747 464.111 243.745C464.111 243.745 464.104 243.744 464.089 243.741C464.075 243.738 464.068 243.737 464.068 243.737C464.053 243.735 464.046 243.733 464.046 243.733C464.046 243.733 464.039 243.732 464.024 243.729C464.024 243.729 464.017 243.728 464.003 243.725C463.988 243.723 463.981 243.721 463.981 243.721C463.981 243.721 463.974 243.72 463.959 243.718C463.945 243.715 463.937 243.714 463.937 243.714C463.923 243.711 463.916 243.71 463.916 243.71C463.901 243.707 463.894 243.706 463.894 243.706C463.894 243.706 463.887 243.705 463.872 243.702C463.858 243.699 463.85 243.698 463.85 243.698C463.836 243.696 463.829 243.694 463.829 243.694C463.829 243.694 463.821 243.693 463.807 243.69C463.792 243.688 463.785 243.686 463.785 243.686C463.771 243.684 463.763 243.682 463.763 243.682C463.763 243.682 463.756 243.681 463.742 243.679C463.742 243.679 463.734 243.677 463.72 243.675C463.705 243.672 463.698 243.671 463.698 243.671C463.698 243.671 463.691 243.67 463.677 243.667C463.662 243.664 463.655 243.663 463.655 243.663C463.655 243.663 463.648 243.662 463.633 243.659C463.619 243.657 463.611 243.655 463.611 243.655C463.611 243.655 463.604 243.654 463.59 243.651C463.59 243.651 463.582 243.65 463.568 243.647C463.553 243.645 463.546 243.643 463.546 243.643C463.532 243.641 463.524 243.64 463.524 243.64Z" fill="#EE7344"/>
<path d="M118.877 273.795C112.77 272.699 108.662 267.216 109.684 261.525C110.705 255.834 116.467 252.102 122.573 253.198C128.68 254.294 132.784 259.797 131.763 265.488C130.742 271.179 124.984 274.891 118.877 273.795Z" fill="#F98B54"/>
<path d="M121.644 262.626C121.256 262.535 121.036 262.391 120.742 262.276C120.431 262.136 120.069 262.03 119.804 262.128C119.518 262.223 119.329 262.524 119.293 262.727C119.278 262.933 119.42 263.021 119.325 263.171C119.235 263.301 118.934 263.477 118.716 263.564C118.481 263.626 118.329 263.599 117.938 263.403C117.55 263.187 116.92 262.823 116.616 262.518C116.312 262.212 116.327 262.006 116.519 261.811C116.707 261.635 117.07 261.491 117.272 261.361C117.454 261.226 117.494 261.128 117.66 260.949C117.823 260.79 118.092 260.546 118.324 260.378C118.537 260.187 118.715 260.072 118.552 259.855C118.371 259.613 117.85 259.269 117.629 258.999C117.412 258.71 117.495 258.495 117.615 258.328C117.713 258.157 117.887 258.063 118.035 257.985C118.187 257.887 118.336 257.809 118.47 257.687C118.629 257.548 118.771 257.386 118.88 257.154C118.988 256.923 119.065 256.623 119.195 256.27C119.326 255.917 119.515 255.491 119.453 255.209C119.392 254.926 119.059 254.782 119.283 254.655C119.483 254.545 120.214 254.467 120.714 254.431C121.232 254.42 121.515 254.471 121.685 254.397C121.855 254.323 121.935 254.128 121.66 254.037C121.381 253.966 120.743 254.019 120.309 254.066C119.852 254.11 119.577 254.144 119.28 254.174C119.008 254.188 118.715 254.198 118.331 254.213C117.972 254.211 117.516 254.255 117.233 254.204C116.972 254.157 116.886 254.016 116.839 253.903C116.792 253.79 116.81 253.689 117.078 253.57C117.321 253.467 117.839 253.33 118.331 253.209C114.227 253.957 110.838 256.84 109.829 260.84C109.93 260.524 110.032 260.208 110.344 260.096C110.655 259.985 111.173 260.099 111.532 260.226C111.89 260.353 112.064 260.509 112.23 260.707C112.379 260.88 112.52 261.093 112.578 261.271C112.636 261.448 112.607 261.61 112.534 261.765C112.465 261.898 112.371 262.049 112.349 262.17C112.331 262.272 112.382 262.364 112.628 262.492C112.852 262.616 113.244 262.812 113.642 263.092C114.04 263.373 114.417 263.775 114.271 264.209C114.13 264.622 113.463 265.088 113.191 265.353C112.916 265.638 113.057 265.726 113.329 265.837C113.6 265.949 114.024 266.087 114.343 266.186C114.64 266.281 114.835 266.317 115.096 266.363C115.379 266.414 115.777 266.444 116.074 266.539C116.353 266.61 116.574 266.754 116.726 266.907C116.896 267.084 117.026 267.232 117.251 267.356C117.479 267.46 117.783 267.515 118.008 267.638C118.236 267.742 118.363 267.911 118.384 268.041C118.384 268.166 118.301 268.255 118.25 268.414C118.181 268.548 118.166 268.754 118.174 268.839C118.155 268.94 118.155 268.94 118.268 269.065C118.362 269.165 118.572 269.37 118.967 269.546C119.365 269.701 119.93 269.802 120.459 269.604C121.01 269.411 121.542 268.942 122.187 268.848C122.832 268.755 123.607 269.061 124.161 269.224C124.715 269.386 125.049 269.404 125.277 269.382C125.501 269.38 125.603 269.315 125.831 269.293C126.038 269.268 126.371 269.286 126.483 269.159C126.596 269.033 126.483 268.783 126.531 268.645C126.596 268.532 126.799 268.526 126.94 268.489C127.081 268.451 127.161 268.382 127.168 268.216C127.172 268.071 127.121 267.852 127.064 267.675C127.006 267.497 126.937 267.38 126.955 267.279C126.977 267.158 127.039 267.064 127.039 266.939C127.039 266.813 126.934 266.648 126.919 266.478C126.883 266.305 126.92 266.102 126.782 265.868C126.623 265.631 126.29 265.362 126.029 265.19C125.786 265.042 125.638 264.994 125.566 264.897C125.471 264.797 125.432 264.643 125.501 264.509C125.57 264.376 125.729 264.237 125.754 264.095C125.78 263.953 125.671 263.808 125.534 263.575C125.418 263.345 125.295 263.03 125.092 262.785C124.911 262.543 124.672 262.375 124.307 262.414C123.966 262.436 123.499 262.666 122.995 262.722C122.51 262.802 122.006 262.733 121.644 262.626Z" fill="#EF7647"/>
<path fill-rule="evenodd" clip-rule="evenodd" d="M126.138 258.582C126.095 258.198 126.215 257.906 126.171 257.648C126.128 257.389 125.9 257.16 125.755 257.092C125.585 257.041 125.52 257.154 125.342 257.269C125.165 257.383 124.878 257.478 124.683 257.569C124.469 257.635 124.324 257.692 124.147 257.681C123.973 257.65 123.781 257.595 123.795 257.514C123.806 257.453 124.042 257.391 124.078 257.314C124.132 257.261 124.009 257.197 123.846 256.979C123.683 256.762 123.477 256.411 123.394 256.125C123.311 255.838 123.351 255.615 123.521 255.416C123.695 255.196 123.981 254.976 124.152 254.777C124.326 254.557 124.362 254.354 124.185 254.093C124.004 253.851 123.609 253.55 123.233 253.274C129.075 254.594 132.926 260.009 131.843 265.543C131.16 269.1 128.623 271.864 125.318 273.152C125.34 273.156 125.344 273.136 125.391 272.998C125.438 272.86 125.532 272.584 125.703 272.385C125.851 272.182 126.076 272.055 126.34 271.956C126.627 271.861 126.978 271.778 127.221 271.675C127.467 271.552 127.601 271.43 127.649 271.292C127.696 271.154 127.652 271.021 127.681 270.859C127.732 270.701 127.852 270.534 128.055 270.403C128.236 270.268 128.493 270.21 128.859 270.046C129.225 269.881 129.718 269.635 130.026 269.419C130.33 269.223 130.432 269.032 130.515 268.817C130.581 268.578 130.628 268.314 130.534 268.088C130.461 267.866 130.291 267.69 130.081 267.485C129.868 267.3 129.636 267.091 129.582 266.768C129.502 266.461 129.579 266.036 129.586 265.744C129.597 265.433 129.543 265.235 129.46 265.074C129.38 264.892 129.293 264.751 129.261 264.557C129.228 264.363 129.272 264.12 129.446 263.9C129.638 263.705 129.982 263.537 130.174 263.341C130.37 263.126 130.41 262.903 130.367 262.644C130.298 262.402 130.15 262.103 129.657 261.848C129.165 261.592 128.354 261.363 127.799 261.201C127.245 261.039 126.93 260.919 126.789 260.706C126.644 260.513 126.655 260.201 126.547 259.805C126.435 259.43 126.203 258.97 126.138 258.582ZM125.318 273.152C125.159 273.207 124.999 273.262 124.84 273.317L124.909 273.309C124.981 273.28 125.101 273.239 125.177 273.19C125.271 273.165 125.293 273.169 125.318 273.152Z" fill="#EE8259"/>
<path d="M114.975 269.164C115.627 269.155 116.413 269.15 116.493 268.955C116.573 268.761 115.968 268.38 115.624 268.047C115.302 267.717 115.222 267.41 114.838 267.174C114.429 266.955 113.716 266.806 113.205 266.777C112.694 266.748 112.408 266.843 112.075 266.825C111.741 266.807 111.387 266.659 111.195 266.479C110.981 266.294 110.952 266.08 110.971 265.728C110.989 265.376 111.072 264.91 111.102 264.622C111.134 264.315 111.087 264.202 110.993 264.352C110.881 264.478 110.721 264.868 110.616 265.079C110.514 265.269 110.464 265.302 110.319 265.234C110.17 265.187 109.928 265.039 109.776 264.51C109.649 263.964 109.61 263.058 109.593 262.156C108.973 267.606 113.009 272.741 118.877 273.794C120.594 274.102 122.289 274.03 123.84 273.64C123.63 273.685 123.42 273.731 123.141 273.786C122.865 273.82 122.521 273.863 122.155 273.776C121.771 273.666 121.366 273.426 120.808 273.409C120.25 273.393 119.565 273.583 118.953 273.62C118.319 273.652 117.761 273.51 117.432 273.347C117.102 273.183 116.976 273.014 117.088 272.888C117.182 272.738 117.49 272.646 117.614 272.585C117.74 272.503 117.708 272.435 117.309 272.405C116.915 272.355 116.179 272.328 115.806 272.156C115.408 272.001 115.375 271.682 115.137 271.388C114.876 271.09 114.434 270.802 114.072 270.444C113.732 270.091 113.475 269.647 113.627 269.424C113.761 269.176 114.323 269.172 114.975 269.164Z" fill="#F78458"/>
<path fill-rule="evenodd" clip-rule="evenodd" d="M118.942 273.806C118.957 273.809 118.964 273.81 118.964 273.81C118.95 273.807 118.942 273.806 118.942 273.806ZM117.693 273.519C117.678 273.516 117.658 273.506 117.631 273.487C117.643 273.503 117.664 273.514 117.693 273.519ZM123.608 273.682C124.2 273.551 124.785 273.37 125.365 273.14C125.348 273.151 125.34 273.156 125.34 273.156C127.709 272.202 129.652 270.502 130.812 268.285C129.619 270.558 127.579 272.304 125.126 273.222C125.203 273.208 125.275 273.186 125.34 273.156C125.318 273.152 125.293 273.169 125.199 273.194C125.126 273.222 125.003 273.284 124.93 273.313L124.862 273.321C124.526 273.442 124.185 273.548 123.84 273.64C123.763 273.654 123.685 273.668 123.608 273.682ZM131.495 266.609C131.495 266.609 131.496 266.603 131.498 266.589C131.498 266.589 131.497 266.596 131.495 266.609ZM131.854 264.981C131.856 264.967 131.858 264.96 131.858 264.96C131.855 264.974 131.854 264.981 131.854 264.981ZM125.253 254.013C125.253 254.013 125.246 254.011 125.232 254.009C125.232 254.009 125.239 254.01 125.253 254.013Z" fill="#502815"/>
<path d="M118.877 273.794C118.877 273.794 118.87 273.793 118.855 273.79C118.841 273.788 118.834 273.786 118.834 273.786C118.819 273.784 118.812 273.783 118.812 273.783C118.812 273.783 118.805 273.781 118.79 273.779C118.79 273.779 118.783 273.777 118.768 273.775C118.768 273.775 118.761 273.773 118.747 273.771C118.732 273.768 118.725 273.767 118.725 273.767C118.725 273.767 118.718 273.766 118.703 273.763C118.703 273.763 118.696 273.762 118.682 273.759C118.682 273.759 118.674 273.758 118.66 273.755C118.645 273.753 118.638 273.751 118.638 273.751C118.638 273.751 118.631 273.75 118.616 273.747C118.616 273.747 118.609 273.746 118.595 273.744C118.597 273.73 118.598 273.723 118.598 273.723C118.584 273.721 118.577 273.719 118.577 273.719C118.562 273.717 118.555 273.715 118.555 273.715C118.555 273.715 118.548 273.714 118.533 273.712C118.533 273.712 118.526 273.71 118.511 273.708C118.497 273.705 118.49 273.704 118.49 273.704C118.49 273.704 118.482 273.702 118.468 273.7C118.453 273.697 118.446 273.696 118.446 273.696C118.432 273.693 118.424 273.692 118.424 273.692C118.41 273.689 118.403 273.688 118.403 273.688C118.403 273.688 118.395 273.687 118.381 273.684C118.366 273.682 118.359 273.68 118.359 273.68C118.345 273.678 118.337 273.677 118.337 273.677C118.337 273.677 118.33 273.675 118.316 273.673C118.316 273.673 118.308 273.671 118.294 273.669C118.294 273.669 118.287 273.667 118.272 273.665C118.258 273.662 118.251 273.661 118.251 273.661C118.251 273.661 118.243 273.66 118.229 273.657C118.214 273.654 118.207 273.653 118.207 273.653C118.193 273.65 118.185 273.649 118.185 273.649C118.185 273.649 118.178 273.648 118.164 273.645C118.164 273.645 118.156 273.644 118.142 273.641C118.144 273.628 118.146 273.621 118.146 273.621C118.131 273.619 118.117 273.616 118.102 273.613C118.102 273.613 118.095 273.612 118.08 273.609C118.066 273.607 118.059 273.606 118.059 273.606C118.044 273.603 118.03 273.6 118.015 273.598C118.015 273.598 118.008 273.596 117.993 273.594C117.993 273.594 117.986 273.593 117.972 273.59C117.957 273.587 117.935 273.583 117.906 273.578C117.892 273.576 117.885 273.574 117.885 273.574C117.885 273.574 117.877 273.573 117.863 273.57C117.851 273.554 117.838 273.545 117.823 273.542C117.809 273.54 117.801 273.539 117.801 273.539C117.801 273.539 117.794 273.537 117.78 273.535C117.765 273.532 117.743 273.528 117.715 273.523C117.715 273.523 117.707 273.522 117.693 273.519C117.664 273.514 117.643 273.503 117.631 273.487C117.617 273.484 117.609 273.483 117.609 273.483C117.581 273.478 117.559 273.474 117.544 273.471C114.437 272.538 111.986 270.446 110.64 267.821C110.63 267.792 110.619 267.769 110.607 267.753C110.61 267.739 110.604 267.731 110.589 267.729C110.592 267.715 110.587 267.7 110.575 267.684C110.575 267.684 110.576 267.678 110.578 267.664C110.578 267.664 110.571 267.663 110.557 267.66C110.557 267.66 110.558 267.653 110.56 267.64C110.56 267.64 110.553 267.639 110.538 267.636C110.541 267.623 110.542 267.616 110.542 267.616C110.544 267.602 110.546 267.596 110.546 267.596C110.531 267.593 110.524 267.592 110.524 267.592C110.524 267.592 110.525 267.585 110.528 267.571C110.513 267.569 110.506 267.567 110.506 267.567C110.508 267.554 110.51 267.547 110.51 267.547C110.51 267.547 110.511 267.541 110.513 267.527C110.513 267.527 110.506 267.526 110.491 267.523C110.491 267.523 110.493 267.516 110.495 267.503C110.481 267.5 110.475 267.492 110.477 267.479C110.479 267.465 110.473 267.457 110.459 267.455C110.461 267.441 110.462 267.434 110.462 267.434C110.448 267.432 110.442 267.424 110.444 267.41C110.447 267.397 110.441 267.389 110.426 267.386C110.426 267.386 110.428 267.379 110.43 267.366C110.418 267.35 110.412 267.342 110.412 267.342C110.4 267.325 110.395 267.311 110.397 267.297C110.397 267.297 110.399 267.29 110.401 267.277C110.387 267.274 110.379 267.273 110.379 267.273C110.379 267.273 110.38 267.266 110.383 267.253C110.371 267.237 110.359 267.221 110.347 267.204C110.347 267.204 110.348 267.198 110.35 267.184C110.003 266.369 109.757 265.489 109.624 264.608C109.924 265.937 110.202 267.262 111.769 268.651C112.438 269.259 113.131 269.774 113.848 270.195C113.923 270.278 113.997 270.361 114.072 270.444C114.434 270.802 114.876 271.09 115.137 271.388C115.376 271.682 115.408 272.001 115.806 272.156C115.908 272.216 116.06 272.243 116.234 272.275C116.603 272.341 117.045 272.378 117.309 272.405C117.384 272.404 117.443 272.408 117.487 272.416C117.704 272.455 117.715 272.52 117.614 272.585C117.49 272.646 117.182 272.738 117.088 272.888C116.976 273.014 117.103 273.183 117.432 273.347C117.617 273.443 117.852 273.506 118.156 273.56C118.395 273.603 118.66 273.63 118.953 273.62C119.566 273.583 120.25 273.393 120.808 273.409C120.912 273.414 121.007 273.424 121.094 273.44C121.507 273.514 121.833 273.698 122.155 273.776C122.199 273.784 122.242 273.792 122.286 273.8C122.612 273.858 122.887 273.824 123.141 273.786C123.304 273.752 123.467 273.719 123.608 273.682C123.685 273.668 123.763 273.654 123.84 273.64C122.76 273.906 121.594 274.031 120.417 273.966C120.373 273.958 120.328 273.957 120.283 273.963C120.283 273.963 120.275 273.962 120.261 273.959C120.261 273.959 120.254 273.958 120.239 273.955C120.225 273.952 120.217 273.951 120.217 273.951C120.188 273.946 120.158 273.947 120.127 273.956C120.112 273.953 120.105 273.952 120.105 273.952C120.105 273.952 120.098 273.951 120.083 273.948C120.069 273.945 120.062 273.944 120.062 273.944C120.062 273.944 120.054 273.943 120.04 273.94C120.025 273.938 120.011 273.935 119.996 273.932C119.982 273.93 119.975 273.928 119.975 273.928C119.96 273.926 119.953 273.925 119.953 273.925C119.938 273.922 119.931 273.921 119.931 273.921C119.931 273.921 119.924 273.919 119.909 273.917C119.907 273.93 119.906 273.937 119.906 273.937C119.906 273.937 119.899 273.936 119.884 273.933C119.884 273.933 119.877 273.932 119.862 273.929C119.848 273.927 119.833 273.924 119.819 273.921C119.804 273.919 119.797 273.918 119.797 273.918C119.797 273.918 119.79 273.916 119.775 273.914C119.761 273.911 119.754 273.91 119.754 273.91C119.754 273.91 119.746 273.908 119.732 273.906C119.732 273.906 119.725 273.905 119.71 273.902C119.696 273.899 119.681 273.897 119.667 273.894C119.667 273.894 119.66 273.893 119.645 273.89C119.645 273.89 119.644 273.897 119.641 273.91C119.627 273.908 119.62 273.907 119.62 273.907C119.62 273.907 119.612 273.905 119.598 273.903C119.598 273.903 119.591 273.901 119.576 273.899C119.562 273.896 119.554 273.895 119.554 273.895C119.554 273.895 119.547 273.894 119.533 273.891C119.533 273.891 119.525 273.89 119.511 273.887C119.496 273.884 119.489 273.883 119.489 273.883C119.489 273.883 119.482 273.882 119.468 273.879C119.468 273.879 119.46 273.878 119.446 273.875C119.431 273.873 119.424 273.871 119.424 273.871C119.41 273.869 119.402 273.868 119.402 273.868C119.402 273.868 119.395 273.866 119.381 273.864C119.381 273.864 119.373 273.862 119.359 273.86C119.359 273.86 119.352 273.858 119.337 273.856C119.337 273.856 119.33 273.855 119.315 273.852C119.301 273.849 119.294 273.848 119.294 273.848C119.279 273.845 119.272 273.844 119.272 273.844C119.272 273.844 119.265 273.843 119.25 273.84C119.236 273.838 119.228 273.836 119.228 273.836C119.214 273.834 119.207 273.832 119.207 273.832C119.192 273.83 119.185 273.829 119.185 273.829C119.168 273.839 119.161 273.838 119.163 273.825C119.161 273.838 119.16 273.845 119.16 273.845C119.145 273.842 119.138 273.841 119.138 273.841C119.138 273.841 119.131 273.84 119.116 273.837C119.116 273.837 119.109 273.836 119.094 273.833C119.08 273.831 119.073 273.829 119.073 273.829C119.058 273.827 119.051 273.825 119.051 273.825C119.036 273.823 119.029 273.822 119.029 273.822C119.015 273.819 119.008 273.818 119.008 273.818C119.008 273.818 119 273.816 118.986 273.814C118.986 273.814 118.979 273.812 118.964 273.81C118.964 273.81 118.957 273.809 118.942 273.806C118.928 273.803 118.921 273.802 118.921 273.802C118.921 273.802 118.913 273.801 118.899 273.798C118.899 273.798 118.892 273.797 118.877 273.794Z" fill="#EE7344"/>
<path d="M449.048 117.431C442.866 126.879 429.563 129.634 419.316 123.614C409.09 117.598 405.797 105.071 411.979 95.6229C418.179 86.1994 431.485 83.4238 441.708 89.4601C451.956 95.4801 455.226 108.004 449.048 117.431Z" fill="#3E61AC"/>
<path d="M451.927 107.391C451.953 106.371 451.913 105.34 451.758 104.329L422.847 87.3089C421.826 87.6273 420.829 88.0547 419.873 88.5102L451.927 107.391Z" fill="#5782C1"/>
<path d="M449.683 97.8944C441.49 89.4211 436.269 91.5154 436.258 98.9554C433.577 123.518 418.279 119.143 413.186 118.521C414.79 120.461 416.766 122.195 419.098 123.575C429.346 129.595 442.649 126.84 448.831 117.392C452.812 111.333 452.852 103.982 449.683 97.8944Z" fill="#3557A6"/>
<path d="M409.235 110.663C410.532 115.808 413.924 120.535 419.098 123.575C424.294 126.619 430.253 127.417 435.691 126.239L409.235 110.663Z" fill="#5882C1"/>
<path d="M426.997 126.435C428.173 126.632 429.357 126.74 430.55 126.759L411.032 115.271C411.57 116.273 412.19 117.235 412.893 118.155L426.997 126.435Z" fill="#3279B7"/>
<path d="M409.015 102.261C408.904 102.799 408.821 103.342 408.768 103.889L442.328 123.626C442.814 123.336 443.289 123.024 443.753 122.69L409.015 102.261Z" fill="#5882C1"/>
<path d="M440.198 124.748L408.647 106.188C408.656 106.803 408.696 107.416 408.765 108.028L438.408 125.472C439.017 125.247 439.613 125.006 440.198 124.748Z" fill="#3279B7"/>
<path d="M409.2 101.479L444.405 122.18C444.823 121.85 445.236 121.506 445.644 121.148L409.654 99.9511C409.473 100.462 409.321 100.972 409.2 101.479Z" fill="#3279B7"/>
<path d="M410.641 97.5778C410.406 98.0513 410.195 98.5221 410.006 98.9899L446.406 120.406C446.77 120.04 447.116 119.656 447.442 119.254L410.641 97.5778Z" fill="#5882C1"/>
<path d="M413.846 92.9685C413.495 93.3377 413.156 93.7297 412.827 94.1446L449.734 115.861C449.98 115.403 450.205 114.942 450.408 114.477L413.846 92.9685Z" fill="#5882C1"/>
<path d="M415.767 91.1391C415.361 91.4844 414.961 91.8377 414.567 92.199L450.782 113.519C450.975 113.025 451.14 112.524 451.275 112.019L415.767 91.1391Z" fill="#5882C1"/>
<path d="M416.183 90.8167L451.406 111.541C451.457 111.341 451.499 111.147 451.533 110.958L416.68 90.425C416.508 90.5475 416.343 90.6781 416.183 90.8167Z" fill="#5882C1"/>
<path d="M451.777 109.475L417.956 89.5669C417.77 89.6868 417.591 89.808 417.419 89.9305L451.69 110.087C451.726 109.884 451.755 109.68 451.777 109.475Z" fill="#5882C1"/>
<path d="M418.51 89.2273L451.864 108.864C451.886 108.659 451.902 108.445 451.912 108.224L419.083 88.912C418.885 89.0158 418.694 89.1209 418.51 89.2273Z" fill="#5882C1"/>
<path d="M410.985 96.9079L447.932 118.652C448.243 118.248 448.543 117.828 448.831 117.392L411.761 95.5838C411.482 96.0145 411.246 96.4531 410.985 96.9079Z" fill="#3279B7"/>
<path d="M451.321 102.139C451.137 101.417 450.887 100.682 450.616 99.9433L427.484 86.3433C426.684 86.4296 425.879 86.5361 425.086 86.7073L451.321 102.139Z" fill="#3279B7"/>
<path d="M449.683 97.8944C441.49 89.4211 436.269 91.5154 436.258 98.9554C433.577 123.518 418.279 119.143 413.186 118.521C414.79 120.461 416.766 122.195 419.098 123.575C429.346 129.595 442.649 126.84 448.831 117.392C452.812 111.333 452.852 103.982 449.683 97.8944Z" fill="#3557A6"/>
<path d="M436.287 98.1663L451.927 107.391C451.939 106.905 451.937 106.417 451.92 105.926C451.915 105.87 451.905 105.805 451.888 105.732C451.866 105.352 451.831 104.963 451.783 104.564C451.766 104.491 451.758 104.413 451.758 104.329L436.767 95.493C436.495 96.2594 436.331 97.1708 436.287 98.1663Z" fill="#4A73B6"/>
<path d="M427.279 126.486C427.323 126.494 427.366 126.501 427.41 126.509C427.731 126.553 428.045 126.595 428.352 126.636C428.381 126.642 428.411 126.64 428.442 126.632C428.529 126.647 428.617 126.656 428.707 126.658C428.132 126.611 427.562 126.536 426.997 126.435C427.084 126.451 427.193 126.47 427.279 126.486Z" fill="#4A73B6"/>
<path d="M417.547 119.095L430.55 126.759C429.983 126.755 429.413 126.722 428.841 126.661C429.031 126.682 429.222 126.702 429.413 126.722C429.428 126.725 429.45 126.722 429.482 126.714C429.808 126.73 430.141 126.748 430.482 126.768C430.484 126.754 430.492 126.749 430.507 126.751C430.85 126.757 431.194 126.756 431.539 126.748C431.539 126.748 431.547 126.75 431.561 126.752C431.892 126.742 432.232 126.719 432.583 126.685C432.583 126.685 432.59 126.686 432.604 126.689C432.938 126.665 433.281 126.629 433.633 126.581C433.983 126.546 434.329 126.496 434.669 126.432C434.669 126.432 434.677 126.433 434.691 126.436C435.017 126.369 435.35 126.303 435.691 126.239L423.216 118.879C421.216 119.272 419.268 119.257 417.547 119.095Z" fill="#4A73B6"/>
<path d="M413.186 118.521C413.201 118.524 413.207 118.532 413.204 118.545C413.378 118.744 413.552 118.942 413.725 119.141C413.762 119.189 413.805 119.239 413.856 119.29C414.017 119.472 414.186 119.655 414.363 119.84C414.428 119.894 414.484 119.953 414.533 120.017C414.697 120.186 414.862 120.348 415.029 120.503C415.126 120.584 415.202 120.66 415.278 120.736C415.433 120.876 415.593 121.023 415.76 121.178C415.866 121.253 415.971 121.335 416.075 121.423C416.215 121.559 416.365 121.684 416.524 121.796C416.654 121.903 416.785 122.01 416.915 122.117C417.062 122.213 417.201 122.315 417.331 122.422C417.505 122.537 417.678 122.658 417.849 122.786C417.972 122.85 418.092 122.935 418.19 123.015C418.484 123.207 418.787 123.394 419.098 123.575C419.424 123.759 419.75 123.943 420.076 124.127C420.173 124.172 420.262 124.216 420.344 124.259C420.594 124.366 420.84 124.494 421.065 124.618C421.17 124.658 421.296 124.701 421.398 124.761C421.62 124.857 421.849 124.954 422.086 125.052C422.185 125.084 422.283 125.122 422.379 125.167C422.616 125.266 422.854 125.357 423.093 125.442C423.192 125.473 423.284 125.504 423.368 125.533C423.622 125.62 423.876 125.701 424.132 125.775C424.217 125.804 424.295 125.825 424.368 125.838C424.638 125.914 424.908 125.991 425.179 126.067C425.251 126.08 425.317 126.092 425.374 126.102C425.659 126.181 425.947 126.246 426.236 126.298C426.294 126.309 426.345 126.318 426.389 126.326C426.606 126.365 426.78 126.396 426.997 126.435L413.624 118.579C413.472 118.552 413.342 118.528 413.186 118.521Z" fill="#4A73B6"/>
<path d="M417.547 119.095C416 118.964 414.653 118.722 413.624 118.579L426.997 126.435C426.983 126.432 426.983 126.432 426.997 126.435C427.562 126.536 428.132 126.611 428.707 126.658C428.721 126.661 428.736 126.663 428.75 126.666C428.765 126.669 428.772 126.67 428.772 126.67C428.801 126.675 428.824 126.672 428.841 126.661C429.413 126.722 429.983 126.755 430.55 126.759L417.547 119.095Z" fill="#306A9A"/>
<path d="M429.282 115.954L442.329 123.626C442.814 123.336 443.282 123.023 443.731 122.686C443.746 122.688 443.746 122.688 443.731 122.686L430.423 114.841C430.051 115.248 429.671 115.619 429.282 115.954Z" fill="#4A73B6"/>
<path d="M425.872 118.08L438.408 125.472C439.017 125.247 439.613 125.006 440.198 124.748L427.499 117.264C426.948 117.583 426.404 117.862 425.872 118.08Z" fill="#306A9A"/>
<path d="M430.931 114.264L444.405 122.179C444.837 121.853 445.251 121.509 445.644 121.148L431.87 113.031C431.565 113.478 431.246 113.881 430.931 114.264Z" fill="#306A9A"/>
<path d="M432.406 112.166L446.406 120.406C446.771 120.04 447.115 119.662 447.439 119.275C447.441 119.261 447.442 119.254 447.442 119.254L433.139 110.834C432.9 111.293 432.66 111.752 432.406 112.166Z" fill="#4A73B6"/>
<path d="M434.659 106.989L449.734 115.861C449.758 115.809 449.782 115.758 449.806 115.707C449.99 115.349 450.167 114.991 450.336 114.631C450.36 114.58 450.377 114.527 450.387 114.473L435.087 105.477C434.949 105.996 434.812 106.514 434.659 106.989Z" fill="#4A73B6"/>
<path d="M435.342 104.435L450.782 113.519C450.806 113.468 450.824 113.409 450.836 113.341C450.979 112.963 451.107 112.581 451.221 112.198C451.231 112.144 451.242 112.083 451.254 112.015L435.672 102.843C435.574 103.39 435.458 103.913 435.342 104.435Z" fill="#4A73B6"/>
<path d="M435.763 102.337L451.406 111.541C451.426 111.433 451.444 111.332 451.461 111.237C451.492 111.145 451.518 111.045 451.537 110.937L435.872 101.729C435.836 101.932 435.799 102.134 435.763 102.337Z" fill="#4A73B6"/>
<path d="M436.003 100.875L451.69 110.087C451.692 110.073 451.693 110.066 451.693 110.066C451.73 109.864 451.762 109.682 451.777 109.475L436.094 100.243C436.058 100.446 436.039 100.672 436.003 100.875Z" fill="#4A73B6"/>
<path d="M436.159 99.6276L451.864 108.864C451.879 108.657 451.897 108.431 451.912 108.224L436.247 99.0162C436.232 99.2226 436.196 99.4251 436.159 99.6276Z" fill="#4A73B6"/>
<path d="M434.078 108.724C433.885 109.219 433.681 109.691 433.465 110.14L447.932 118.652C447.932 118.652 447.933 118.646 447.935 118.632C448.254 118.229 448.552 117.823 448.831 117.392L434.078 108.724Z" fill="#306A9A"/>
<path d="M451.169 101.61C451.143 101.508 451.115 101.413 451.086 101.324C451.002 101.044 450.909 100.769 450.808 100.5C450.757 100.366 450.712 100.239 450.674 100.121C450.641 100.052 450.627 100.008 450.594 99.9394L438.641 92.9235C438.204 93.1935 437.824 93.5574 437.503 94.0154L451.321 102.139C451.263 101.962 451.213 101.785 451.169 101.61Z" fill="#306A9A"/>
</g>
<defs>
<clipPath id="clip0_0_1">
<rect width="514" height="310" fill="white" transform="translate(38.9595 47.6385) rotate(7.04771)"/>
</clipPath>
<clipPath id="clip1_0_1">
<rect width="413.538" height="366.878" fill="white" transform="translate(119.348 0.427979) rotate(10.1736)"/>
</clipPath>
</defs>
</svg>
