<svg width="447" height="363" viewBox="-30 0 500 363" fill="none" xmlns="http://www.w3.org/2000/svg">
<path d="M174.833 158.939C174.833 123.832 201.929 95.126 236.331 92.483C231.153 91.558 225.871 91 220.429 91C170.49 91 130 131.526 130 181.507C130 206.396 140.049 228.92 156.289 245.292L194.902 206.645C182.535 194.517 174.833 177.631 174.833 158.939Z" fill="#D89144"/>
<path d="M174.833 158.939C174.833 177.631 182.535 194.517 194.917 206.63L284.069 117.4C283.468 116.798 282.896 116.182 282.294 115.609C282.25 115.565 282.206 115.536 282.162 115.492C277.644 111.263 272.685 107.489 267.374 104.244C267.081 104.068 266.802 103.892 266.509 103.716C264.792 102.688 263.046 101.719 261.257 100.808C261.213 100.779 261.154 100.764 261.11 100.735C255.55 97.9158 249.638 95.6839 243.491 94.0688C243.08 93.966 242.684 93.8632 242.273 93.7604C240.322 93.2759 238.341 92.8354 236.346 92.483C201.929 95.1259 174.833 123.846 174.833 158.939Z" fill="#F5C268"/>
<path d="M220.429 272C270.367 272 310.858 231.474 310.858 181.492C310.858 173.989 309.845 166.75 308.129 159.776C307.674 196.234 278.04 225.66 241.51 225.66C223.363 225.66 206.947 218.391 194.932 206.615L156.319 245.262C172.677 261.78 195.357 272 220.429 272Z" fill="#D89144"/>
<path d="M194.917 206.631C206.932 218.392 223.363 225.675 241.495 225.675C278.025 225.675 307.659 196.25 308.114 159.791C308.114 159.791 308.114 159.791 308.114 159.776C304.432 144.829 297.038 131.364 286.974 120.381C286.856 120.249 286.739 120.132 286.622 119.999C285.8 119.104 284.92 118.267 284.054 117.401L194.917 206.631Z" fill="url(#paint0_linear_8_200)"/>
<g opacity="0.26">
<path opacity="0.26" d="M131.805 163.447H308.921C308.672 162.213 308.423 160.995 308.114 159.776C308.114 159.776 308.114 159.776 308.114 159.761C307.836 158.645 307.513 157.573 307.19 156.472H133.536C132.876 158.777 132.289 161.083 131.805 163.447Z" fill="#F2EED1"/>
<path opacity="0.26" d="M156.289 245.277C158.24 247.244 160.28 249.109 162.392 250.886H278.465C280.577 249.109 282.617 247.244 284.568 245.277H156.289Z" fill="#F2EED1"/>
<path opacity="0.26" d="M144.613 132.187H296.085C293.356 128.002 290.334 124.037 286.975 120.367C286.857 120.234 286.74 120.117 286.623 119.985C285.801 119.089 284.921 118.252 284.055 117.386H156.598C152.109 121.879 148.089 126.857 144.613 132.187Z" fill="#F2EED1"/>
<path opacity="0.26" d="M131.247 196.382C132.509 204.032 134.739 211.344 137.79 218.216H303.068C306.119 211.344 308.349 204.032 309.611 196.382H131.247Z" fill="#F2EED1"/>
</g>
<defs>
<linearGradient id="paint0_linear_8_200" x1="311.157" y1="136.921" x2="222.757" y2="225.244" gradientUnits="userSpaceOnUse">
<stop stop-color="#F5C268"/>
<stop offset="1" stop-color="#D89144"/>
</linearGradient>
</defs>
</svg>
