<svg width="248" height="213" viewBox="-40 0 300 240" fill="none" xmlns="http://www.w3.org/2000/svg">
<path d="M44.929 102.443C44.929 68.116 72.0913 40.0458 106.557 37.4459C101.375 36.5422 96.0648 36 90.6267 36C40.587 36 0 75.6237 0 124.493C0 148.823 10.0649 170.859 26.3509 186.862L65.0587 149.06C52.6591 137.228 44.929 120.725 44.929 102.443Z" fill="url(#paint0_linear_0_1)"/>
<path d="M44.9297 102.442C44.9297 120.725 52.6456 137.228 65.0595 149.073L154.405 61.8177C153.807 61.2338 153.238 60.6221 152.625 60.066C152.583 60.0242 152.54 59.9964 152.497 59.9547C147.97 55.8116 143.002 52.1273 137.678 48.9574C137.393 48.7906 137.094 48.6099 136.809 48.443C135.087 47.442 133.336 46.4827 131.542 45.6068C131.499 45.579 131.442 45.5651 131.399 45.5373C125.819 42.7845 119.911 40.6017 113.747 39.0168C113.334 38.9194 112.935 38.8082 112.522 38.7109C110.558 38.2382 108.593 37.8072 106.572 37.4596C72.0921 40.0317 44.9297 68.1158 44.9297 102.442Z" fill="#EE6D58"/>
<path d="M90.6268 213C140.667 213 181.239 173.376 181.239 124.507C181.239 117.166 180.228 110.09 178.506 103.263C178.05 138.911 148.354 167.69 111.739 167.69C93.5594 167.69 77.1026 160.572 65.0589 149.074L26.3511 186.876C42.7652 203.004 65.5002 213 90.6268 213Z" fill="#BF423C"/>
<path d="M65.0588 149.073C77.1025 160.571 93.5594 167.689 111.739 167.689C148.354 167.689 178.05 138.91 178.506 103.263C178.506 103.263 178.506 103.263 178.506 103.249C174.804 88.6367 167.402 75.4566 157.323 64.7234C157.209 64.5983 157.095 64.4732 156.981 64.3481C156.155 63.4722 155.273 62.6519 154.404 61.8177L65.0588 149.073Z" fill="url(#paint1_linear_0_1)"/>
<path opacity="0.2" d="M63.9625 102.644C66.4432 92.3837 59.9376 82.1024 49.4319 79.6797C38.9262 77.257 28.3987 83.6104 25.918 93.8704C23.4373 104.13 29.9428 114.412 40.4485 116.834C50.9542 119.257 61.4818 112.904 63.9625 102.644Z" fill="#3E2F3C"/>
<path opacity="0.2" d="M50.5524 146.821C50.5524 153.342 45.1284 158.639 38.4517 158.639C31.775 158.639 26.3511 153.356 26.3511 146.821C26.3511 140.301 31.775 135.004 38.4517 135.004C45.1427 135.004 50.5524 140.287 50.5524 146.821Z" fill="#3E2F3C"/>
<path opacity="0.2" d="M107.24 151.951C107.24 156.039 103.852 159.347 99.6666 159.347C95.4812 159.347 92.093 156.039 92.093 151.951C92.093 147.864 95.4812 144.555 99.6666 144.555C103.852 144.555 107.24 147.877 107.24 151.951Z" fill="#3E2F3C"/>
<path opacity="0.3" d="M99.6666 183.956C99.6666 190.616 94.143 196.01 87.3239 196.01C80.5048 196.01 74.9812 190.616 74.9812 183.956C74.9812 177.296 80.5048 171.902 87.3239 171.902C94.143 171.902 99.6666 177.296 99.6666 183.956Z" fill="#F5C268"/>
<path opacity="0.4" d="M111.369 72.9404C111.369 77.0279 107.981 80.3368 103.795 80.3368C99.6098 80.3368 96.2217 77.0279 96.2217 72.9404C96.2217 68.8529 99.6098 65.544 103.795 65.544C107.981 65.544 111.369 68.8668 111.369 72.9404Z" fill="#F2EED1"/>
<path opacity="0.3" d="M89.9004 70.7858C89.9004 76.0551 85.5157 80.3372 80.1203 80.3372C74.7248 80.3372 70.3401 76.0551 70.3401 70.7858C70.3401 65.5166 74.7248 61.2345 80.1203 61.2345C85.5157 61.2345 89.9004 65.5166 89.9004 70.7858Z" fill="#F5C268"/>
<path opacity="0.2" d="M150.404 159.237C150.404 164.742 145.835 169.205 140.197 169.205C134.56 169.205 129.99 164.742 129.99 159.237C129.99 153.731 134.56 149.268 140.197 149.268C145.835 149.268 150.404 153.731 150.404 159.237Z" fill="#3E2F3C"/>
<path d="M189.229 48.8064C178.959 48.8064 170.655 40.4729 170.655 30.166C170.655 19.859 178.959 11.5256 189.229 11.5256C199.499 11.5256 207.803 19.859 207.803 30.166C207.803 40.4729 199.499 48.8064 189.229 48.8064Z" fill="#F41111"/>
<path opacity="0.7" d="M184.809 23.9525C183.437 23.9525 182.327 22.8388 182.327 21.4612C182.327 20.0935 183.437 18.9798 184.809 18.9798C186.172 18.9798 187.282 20.0935 187.282 21.4612C187.282 22.8388 186.172 23.9525 184.809 23.9525Z" fill="white"/>
<path opacity="0.2" d="M194.31 12.1899C197.484 15.5311 199.441 20.0544 199.441 25.0369C199.441 35.3341 191.127 43.6773 180.877 43.6773C179.261 43.6773 177.703 43.4429 176.204 43.0618C179.592 46.6277 184.362 48.8552 189.648 48.8552C199.898 48.8552 208.221 40.512 208.221 30.2148C208.221 21.5394 202.303 14.2708 194.31 12.1899Z" fill="black"/>
<path d="M218.53 100.585C206.157 100.585 196.16 90.5518 196.16 78.1347C196.16 65.7175 206.157 55.6841 218.53 55.6841C230.903 55.6841 240.9 65.7175 240.9 78.1347C240.9 90.5518 230.903 100.585 218.53 100.585Z" fill="#FF9F36"/>
<path opacity="0.2" d="M224.059 56.4853C227.885 60.5201 230.25 65.9618 230.25 71.9603C230.25 84.3579 220.224 94.4108 207.88 94.4108C205.933 94.4108 204.055 94.1373 202.254 93.6684C206.332 97.9572 212.066 100.644 218.442 100.644C230.796 100.644 240.812 90.6007 240.812 78.2031C240.812 67.7496 233.687 58.996 224.059 56.4853Z" fill="black"/>
<defs>
<linearGradient id="paint0_linear_0_1" x1="0.00953815" y1="111.431" x2="106.564" y2="111.431" gradientUnits="userSpaceOnUse">
<stop stop-color="#EE6D58"/>
<stop offset="1" stop-color="#BF423C"/>
</linearGradient>
<linearGradient id="paint1_linear_0_1" x1="166.928" y1="95.1883" x2="104.635" y2="158.973" gradientUnits="userSpaceOnUse">
<stop stop-color="#EE6D58"/>
<stop offset="1" stop-color="#BF423C"/>
</linearGradient>
</defs>
</svg>
